<?xml version="1.0" standalone="no"?>
<!DOCTYPE svg PUBLIC "-//W3C//DTD SVG 20010904//EN"
 "http://www.w3.org/TR/2001/REC-SVG-20010904/DTD/svg10.dtd">
<svg version="1.0" xmlns="http://www.w3.org/2000/svg"
 width="256.000000pt" height="256.000000pt" viewBox="0 0 256.000000 256.000000"
 preserveAspectRatio="xMidYMid meet">
<metadata>
Created by potrace 1.14, written by Peter Selinger 2001-2017
</metadata>
<g transform="translate(0.000000,256.000000) scale(0.100000,-0.100000)"
fill="#000000" stroke="none">
<path d="M617 2508 c-9 -74 -58 -258 -76 -287 -8 -12 -31 6 -111 82 -55 54
-125 113 -155 133 -58 39 -69 38 -113 -9 l-23 -24 68 -46 c37 -25 110 -87 162
-137 52 -50 108 -98 124 -107 43 -22 91 -10 121 30 34 47 86 222 104 355 l9
62 -52 0 -52 0 -6 -52z"/>
<path d="M859 2539 c-36 -67 -72 -223 -85 -364 -11 -125 -38 -213 -67 -216
-63 -8 -129 23 -332 154 -159 102 -194 117 -276 117 -67 0 -83 -15 -92 -83 -5
-38 -5 -39 21 -30 15 4 52 8 83 7 58 0 60 -1 234 -114 211 -136 302 -172 383
-151 88 24 127 103 147 296 15 146 42 262 79 340 l32 65 -58 0 c-48 0 -59 -3
-69 -21z"/>
<path d="M1023 2526 c-12 -18 -30 -64 -42 -102 -23 -80 -26 -102 -46 -374 -15
-196 -50 -283 -121 -296 -50 -9 -141 18 -239 70 -44 24 -114 62 -156 85 -76
41 -137 66 -188 77 -46 10 -145 11 -188 2 l-43 -9 0 -55 c0 -30 1 -54 3 -54 1
0 22 6 47 14 100 30 205 3 380 -97 192 -111 289 -144 387 -134 79 8 124 41
162 119 17 35 33 79 36 98 3 19 7 46 10 60 7 38 14 125 20 235 8 130 30 238
62 297 29 54 55 74 110 87 30 7 17 9 -67 10 l-105 1 -22 -34z"/>
<path d="M1378 2553 c34 -2 90 -2 125 0 34 2 6 3 -63 3 -69 0 -97 -1 -62 -3z"/>
<path d="M2125 2508 c-180 -67 -276 -77 -630 -67 -101 3 -114 1 -165 -23 -98
-46 -150 -109 -188 -228 -31 -98 -38 -153 -47 -370 -9 -236 -19 -311 -44 -355
-32 -57 -92 -42 -258 66 -167 108 -289 146 -441 136 -94 -5 -153 -22 -247 -68
-103 -51 -107 -56 -103 -127 l3 -63 51 39 c146 109 304 145 458 103 90 -25
135 -46 231 -111 93 -63 150 -91 210 -105 82 -19 151 9 185 74 38 75 46 131
55 361 14 374 50 491 170 552 32 17 54 20 130 18 278 -9 385 -4 515 26 101 23
248 78 292 108 20 14 19 15 -13 31 -63 33 -80 33 -164 3z"/>
<path d="M2331 2400 c-22 -22 -42 -48 -43 -57 0 -10 -2 -25 -3 -33 -3 -27 24
-68 57 -88 35 -21 86 -37 153 -48 22 -3 44 -9 49 -12 5 -3 7 2 3 10 -3 9 -11
34 -18 57 -11 36 -17 42 -53 52 -23 6 -52 16 -64 22 l-24 11 32 29 32 29 -33
34 c-18 19 -36 34 -40 34 -4 0 -25 -18 -48 -40z"/>
<path d="M1904 2205 c-145 -25 -237 -70 -319 -156 -115 -120 -178 -330 -169
-564 3 -83 14 -239 19 -263 1 -9 6 -37 10 -62 10 -61 41 -152 78 -224 129
-259 427 -480 836 -620 156 -53 147 -53 165 1 9 25 15 47 13 48 -1 0 -42 14
-92 29 -121 38 -302 117 -400 172 -310 178 -476 402 -510 686 -12 97 -14 129
-15 248 -2 277 60 438 204 534 146 97 395 105 744 25 45 -10 85 -19 87 -19 8
0 5 84 -3 96 -6 10 -23 15 -101 30 -7 1 -34 7 -60 13 -149 34 -369 46 -487 26z"/>
<path d="M2068 1844 c-159 -38 -261 -148 -303 -326 -82 -349 150 -625 678
-807 l117 -40 0 53 0 53 -107 39 c-130 46 -307 134 -384 191 -132 98 -209 221
-217 347 -5 80 15 182 49 247 77 151 259 192 547 121 l112 -28 0 53 c0 59 13
51 -140 88 -90 22 -280 27 -352 9z"/>
<path d="M2197 1665 c-85 -22 -145 -86 -168 -179 -46 -189 98 -371 421 -533
l105 -53 3 51 c2 29 0 55 -5 59 -4 4 -44 26 -88 50 -167 89 -280 183 -320 265
-39 81 -15 199 47 231 60 31 190 19 349 -31 17 -6 19 -1 19 49 0 31 -3 56 -7
56 -5 0 -42 10 -83 21 -93 25 -209 31 -273 14z"/>
<path d="M2430 1369 c-71 -44 -73 -138 -2 -212 26 -27 112 -87 125 -87 4 0 7
26 7 58 0 52 -3 59 -30 77 -31 21 -57 61 -47 72 4 3 23 6 42 5 l35 -1 0 49 c0
28 -3 51 -7 51 -47 8 -98 3 -123 -12z"/>
<path d="M456 1280 c-132 -35 -247 -103 -381 -224 l-75 -68 0 -81 1 -82 20 25
c122 150 285 272 429 321 98 34 250 32 347 -3 138 -50 257 -147 403 -328 316
-393 608 -615 996 -756 l91 -33 53 36 c28 19 48 38 44 42 -5 5 -31 14 -59 21
-139 38 -365 142 -499 232 -172 116 -374 308 -545 520 -177 219 -298 314 -481
375 -72 24 -261 26 -344 3z"/>
<path d="M619 968 c-78 -10 -151 -41 -246 -104 -80 -54 -260 -222 -337 -316
-38 -48 -38 -48 -31 -113 3 -36 10 -65 13 -64 4 0 39 38 77 85 147 179 315
326 435 381 69 32 162 41 210 21 41 -18 180 -119 276 -202 38 -33 159 -150
269 -260 212 -213 294 -288 393 -355 l61 -41 118 0 c106 1 115 2 88 14 -200
88 -273 143 -550 417 -294 291 -301 298 -450 411 -159 121 -212 141 -326 126z"/>
<path d="M610 573 c-98 -15 -239 -87 -345 -176 -66 -56 -175 -168 -175 -179 0
-4 14 -23 31 -42 l30 -35 87 88 c97 98 142 134 222 179 157 89 279 84 374 -14
79 -82 126 -201 127 -326 l1 -68 48 0 c55 0 58 5 54 93 -9 173 -98 345 -221
426 -65 43 -158 65 -233 54z"/>
<path d="M471 213 c-54 -13 -171 -83 -206 -122 -22 -26 -16 -33 46 -52 33 -10
39 -9 80 21 116 84 203 78 258 -20 22 -39 24 -40 76 -40 54 0 54 0 45 25 -58
152 -169 222 -299 188z"/>
</g>
</svg>
